<svg width="560" height="320" viewBox="0 0 560 320" fill="none" xmlns="http://www.w3.org/2000/svg">
  <rect width="560" height="320" fill="#0F172A"/>
  <rect x="20" y="20" width="520" height="280" rx="10" fill="#111827" stroke="#334155"/>
  <text x="36" y="52" fill="#E2E8F0" font-family="Arial, sans-serif" font-size="16">Vitals Trend (Mock)</text>
  <line x1="60" y1="240" x2="500" y2="240" stroke="#475569"/>
  <line x1="60" y1="240" x2="60" y2="90" stroke="#475569"/>
  <polyline points="90,130 220,145 350,160 480,150" fill="none" stroke="#F87171" stroke-width="3"/>
  <polyline points="90,180 220,188 350,200 480,192" fill="none" stroke="#60A5FA" stroke-width="3"/>
  <text x="88" y="260" fill="#94A3B8" font-family="Arial, sans-serif" font-size="11">08:00</text>
  <text x="216" y="260" fill="#94A3B8" font-family="Arial, sans-serif" font-size="11">09:00</text>
  <text x="346" y="260" fill="#94A3B8" font-family="Arial, sans-serif" font-size="11">10:00</text>
  <text x="474" y="260" fill="#94A3B8" font-family="Arial, sans-serif" font-size="11">11:00</text>
  <rect x="350" y="40" width="170" height="56" rx="8" fill="#0B1220" stroke="#334155"/>
  <circle cx="366" cy="58" r="4" fill="#F87171"/>
  <text x="378" y="62" fill="#E5E7EB" font-family="Arial, sans-serif" font-size="12">Systolic BP</text>
  <circle cx="366" cy="78" r="4" fill="#60A5FA"/>
  <text x="378" y="82" fill="#E5E7EB" font-family="Arial, sans-serif" font-size="12">Diastolic BP</text>
  <text x="36" y="294" fill="#94A3B8" font-family="Arial, sans-serif" font-size="12">Highest reading: 162/96 at triage (mock clinical data)</text>
</svg>
